# xmcd
#
# Track frame offsets:
# 187
# 12780
# 23982
# 35137
# 46420
# 58942
# 71062
# 83580
# 93522
# 106642
# 119310
# 131937
# 144880
# 156087
# 165715
# 180222
# 192717
# 205487
# 218282
# 230752
# 243807
# 256937
# 268065
# 279492
# 291950
# 303997
#
# Disc length: 4210 seconds
#
# Revision: 0
# Processed by: cddbd v1.4PL0 Copyright (c) Steve Scherf et al.
# Submitted via: MacMP3 Pro 5.0 (http://mp3.act2.co.jp/)
#
DISCID=7610701a
DTITLE=Motown Musician - The History Of Motown 1960-1965
DYEAR=1900
DGENRE=
TTITLE0=Shop Around
TTITLE1=Please Mr.Postman
TTITLE2=Jamie
TTITLE3=The One Who Really Loves You
TTITLE4=Playboy
TTITLE5=I'll Try Something New
TTITLE6=You Beat Me To The Punch
TTITLE7=Beachwood 4-5789
TTITLE8=Do You Love Me
TTITLE9=Stubborne Kind Of Fellow
TTITLE10=Two Lovers
TTITLE11=You're Really Got A Hold On Me
TTITLE12=Come And Get These Memories
TTITLE13=Pride And Joy
TTITLE14=Fingertips
TTITLE15=Heat Wave
TTITLE16=Can I Get A Witness
TTITLE17=Mickey's  Monkey
TTITLE18=The Way You Do The Things You Do
TTITLE19=My Guy
TTITLE20=Every Little Bit Hurts
TTITLE21=What's The Matter With You Baby
TTITLE22=Where Did Our Love Go
TTITLE23=Baby I Need Your Loving
TTITLE24=Dancing In The Street
TTITLE25=Come See About Me
EXTD=
EXTT0=
EXTT1=
EXTT2=
EXTT3=
EXTT4=
EXTT5=
EXTT6=
EXTT7=
EXTT8=
EXTT9=
EXTT10=
EXTT11=
EXTT12=
EXTT13=
EXTT14=
EXTT15=
EXTT16=
EXTT17=
EXTT18=
EXTT19=
EXTT20=
EXTT21=
EXTT22=
EXTT23=
EXTT24=
EXTT25=
PLAYORDER=
